<?xml version="1.0" encoding="UTF-8" standalone="no"?>
<!DOCTYPE svg PUBLIC "-//W3C//DTD SVG 1.1//EN"
 "http://www.w3.org/Graphics/SVG/1.1/DTD/svg11.dtd">
<!-- Generated by graphviz version 2.44.1 (20200629.0846)
 -->
<!-- Pages: 1 -->
<svg width="747pt" height="422pt"
 viewBox="0.00 0.00 747.37 422.00" xmlns="http://www.w3.org/2000/svg" xmlns:xlink="http://www.w3.org/1999/xlink">
<g id="graph0" class="graph" transform="scale(1 1) rotate(0) translate(4 418)">
<polygon fill="white" stroke="transparent" points="-4,4 -4,-418 743.37,-418 743.37,4 -4,4"/>
<!-- Backstop -->
<g id="node1" class="node">
<title>Backstop</title>
<polygon fill="yellow" stroke="black" points="431.6,-279 364.6,-279 364.6,-243 431.6,-243 431.6,-279"/>
<text text-anchor="middle" x="398.1" y="-257.3" font-family="Times,serif" font-size="14.00">Backstop</text>
</g>
<!-- FEL -->
<g id="node13" class="node">
<title>FEL</title>
<ellipse fill="lightgrey" stroke="black" cx="471.1" cy="-234" rx="3.5" ry="3.5"/>
</g>
<!-- Backstop&#45;&gt;FEL -->
<g id="edge1" class="edge">
<title>Backstop&#45;&gt;FEL</title>
<path fill="none" stroke="black" d="M431.73,-247.5C451,-247.5 471.37,-247.5 471.37,-247.5 471.37,-247.5 471.37,-241.69 471.37,-237.69"/>
</g>
<!-- GasExtraction -->
<g id="node2" class="node">
<title>GasExtraction</title>
<polygon fill="yellow" stroke="black" points="99.5,-306 5.5,-306 5.5,-270 99.5,-270 99.5,-306"/>
<text text-anchor="middle" x="52.5" y="-284.3" font-family="Times,serif" font-size="14.00">GasExtraction</text>
</g>
<!-- GAS -->
<g id="node14" class="node">
<title>GAS</title>
<ellipse fill="lightgrey" stroke="black" cx="168.3" cy="-288" rx="3.5" ry="3.5"/>
</g>
<!-- GasExtraction&#45;&gt;GAS -->
<g id="edge2" class="edge">
<title>GasExtraction&#45;&gt;GAS</title>
<path fill="none" stroke="black" d="M99.6,-288C125.65,-288 154.72,-288 164.71,-288"/>
</g>
<!-- CO2 -->
<g id="node17" class="node">
<title>CO2</title>
<ellipse fill="grey" stroke="black" cx="168.3" cy="-207" rx="27.1" ry="27.1"/>
<text text-anchor="middle" x="168.3" y="-203.3" font-family="Times,serif" font-size="14.00">CO2</text>
</g>
<!-- GasExtraction&#45;&gt;CO2 -->
<g id="edge3" class="edge">
<title>GasExtraction&#45;&gt;CO2</title>
<path fill="none" stroke="black" d="M99.66,-273C123.47,-273 147.37,-273 147.37,-273 147.37,-273 147.37,-244.24 147.37,-224.69"/>
</g>
<!-- GasExtraction2 -->
<g id="node3" class="node">
<title>GasExtraction2</title>
<polygon fill="yellow" stroke="black" points="103,-252 2,-252 2,-216 103,-216 103,-252"/>
<text text-anchor="middle" x="52.5" y="-230.3" font-family="Times,serif" font-size="14.00">GasExtraction2</text>
</g>
<!-- GasExtraction2&#45;&gt;GAS -->
<g id="edge4" class="edge">
<title>GasExtraction2&#45;&gt;GAS</title>
<path fill="none" stroke="black" d="M103.22,-247.5C133.99,-247.5 167.37,-247.5 167.37,-247.5 167.37,-247.5 167.37,-274.75 167.37,-284.55"/>
</g>
<!-- GasExtraction2&#45;&gt;CO2 -->
<g id="edge5" class="edge">
<title>GasExtraction2&#45;&gt;CO2</title>
<path fill="none" stroke="black" d="M103.29,-225.15C118.97,-225.15 135.35,-225.15 147.75,-225.15"/>
</g>
<!-- GasExtraction3 -->
<g id="node4" class="node">
<title>GasExtraction3</title>
<polygon fill="yellow" stroke="black" points="103,-414 2,-414 2,-378 103,-378 103,-414"/>
<text text-anchor="middle" x="52.5" y="-392.3" font-family="Times,serif" font-size="14.00">GasExtraction3</text>
</g>
<!-- GasExtraction3&#45;&gt;GAS -->
<g id="edge6" class="edge">
<title>GasExtraction3&#45;&gt;GAS</title>
<path fill="none" stroke="black" d="M103.17,-402C135.12,-402 170.37,-402 170.37,-402 170.37,-402 170.37,-308.37 170.37,-290.82"/>
</g>
<!-- GasExtraction3&#45;&gt;CO2 -->
<g id="edge7" class="edge">
<title>GasExtraction3&#45;&gt;CO2</title>
<path fill="none" stroke="black" d="M103.12,-390C130.74,-390 159.37,-390 159.37,-390 159.37,-390 159.37,-283.28 159.37,-232.83"/>
</g>
<!-- GasImport -->
<g id="node5" class="node">
<title>GasImport</title>
<polygon fill="yellow" stroke="black" points="90,-360 15,-360 15,-324 90,-324 90,-360"/>
<text text-anchor="middle" x="52.5" y="-338.3" font-family="Times,serif" font-size="14.00">GasImport</text>
</g>
<!-- GasImport&#45;&gt;GAS -->
<g id="edge8" class="edge">
<title>GasImport&#45;&gt;GAS</title>
<path fill="none" stroke="black" d="M90.11,-348C123.62,-348 167.37,-348 167.37,-348 167.37,-348 167.37,-304.49 167.37,-291.57"/>
</g>
<!-- GasImport&#45;&gt;CO2 -->
<g id="edge9" class="edge">
<title>GasImport&#45;&gt;CO2</title>
<path fill="none" stroke="black" d="M90.06,-336C118.74,-336 153.37,-336 153.37,-336 153.37,-336 153.37,-267.17 153.37,-230.06"/>
</g>
<!-- CoalExtraction -->
<g id="node6" class="node">
<title>CoalExtraction</title>
<polygon fill="yellow" stroke="black" points="101.5,-90 3.5,-90 3.5,-54 101.5,-54 101.5,-90"/>
<text text-anchor="middle" x="52.5" y="-68.3" font-family="Times,serif" font-size="14.00">CoalExtraction</text>
</g>
<!-- COA -->
<g id="node16" class="node">
<title>COA</title>
<ellipse fill="lightgrey" stroke="black" cx="168.3" cy="-126" rx="3.5" ry="3.5"/>
</g>
<!-- CoalExtraction&#45;&gt;COA -->
<g id="edge10" class="edge">
<title>CoalExtraction&#45;&gt;COA</title>
<path fill="none" stroke="black" d="M99.37,-90.27C99.37,-105.34 99.37,-124.25 99.37,-124.25 99.37,-124.25 151.21,-124.25 164.97,-124.25"/>
</g>
<!-- CoalExtraction&#45;&gt;CO2 -->
<g id="edge11" class="edge">
<title>CoalExtraction&#45;&gt;CO2</title>
<path fill="none" stroke="black" d="M101.76,-72C127.36,-72 153.37,-72 153.37,-72 153.37,-72 153.37,-145.58 153.37,-184.1"/>
</g>
<!-- CoalExtraction2 -->
<g id="node7" class="node">
<title>CoalExtraction2</title>
<polygon fill="yellow" stroke="black" points="105,-36 0,-36 0,0 105,0 105,-36"/>
<text text-anchor="middle" x="52.5" y="-14.3" font-family="Times,serif" font-size="14.00">CoalExtraction2</text>
</g>
<!-- CoalExtraction2&#45;&gt;COA -->
<g id="edge12" class="edge">
<title>CoalExtraction2&#45;&gt;COA</title>
<path fill="none" stroke="black" d="M105.01,-12C135.67,-12 168.37,-12 168.37,-12 168.37,-12 168.37,-103.22 168.37,-122.46"/>
</g>
<!-- CoalExtraction2&#45;&gt;CO2 -->
<g id="edge13" class="edge">
<title>CoalExtraction2&#45;&gt;CO2</title>
<path fill="none" stroke="black" d="M105.31,-24C132.24,-24 159.37,-24 159.37,-24 159.37,-24 159.37,-130.72 159.37,-181.17"/>
</g>
<!-- CoalExtraction3 -->
<g id="node8" class="node">
<title>CoalExtraction3</title>
<polygon fill="yellow" stroke="black" points="105,-198 0,-198 0,-162 105,-162 105,-198"/>
<text text-anchor="middle" x="52.5" y="-176.3" font-family="Times,serif" font-size="14.00">CoalExtraction3</text>
</g>
<!-- CoalExtraction3&#45;&gt;COA -->
<g id="edge14" class="edge">
<title>CoalExtraction3&#45;&gt;COA</title>
<path fill="none" stroke="black" d="M96.37,-161.73C96.37,-146.66 96.37,-127.75 96.37,-127.75 96.37,-127.75 151.44,-127.75 165.21,-127.75"/>
</g>
<!-- CoalExtraction3&#45;&gt;CO2 -->
<g id="edge15" class="edge">
<title>CoalExtraction3&#45;&gt;CO2</title>
<path fill="none" stroke="black" d="M105.32,-188.85C120.35,-188.85 135.84,-188.85 147.7,-188.85"/>
</g>
<!-- CoalImport -->
<g id="node9" class="node">
<title>CoalImport</title>
<polygon fill="yellow" stroke="black" points="92.5,-144 12.5,-144 12.5,-108 92.5,-108 92.5,-144"/>
<text text-anchor="middle" x="52.5" y="-122.3" font-family="Times,serif" font-size="14.00">CoalImport</text>
</g>
<!-- CoalImport&#45;&gt;COA -->
<g id="edge16" class="edge">
<title>CoalImport&#45;&gt;COA</title>
<path fill="none" stroke="black" d="M92.68,-126C120.11,-126 153.42,-126 164.51,-126"/>
</g>
<!-- CoalImport&#45;&gt;CO2 -->
<g id="edge17" class="edge">
<title>CoalImport&#45;&gt;CO2</title>
<path fill="none" stroke="black" d="M92.74,-136.75C118.59,-136.75 147.37,-136.75 147.37,-136.75 147.37,-136.75 147.37,-168.46 147.37,-189.27"/>
</g>
<!-- NGCC -->
<g id="node10" class="node">
<title>NGCC</title>
<polygon fill="yellow" stroke="black" points="285.6,-279 231.6,-279 231.6,-243 285.6,-243 285.6,-279"/>
<text text-anchor="middle" x="258.6" y="-257.3" font-family="Times,serif" font-size="14.00">NGCC</text>
</g>
<!-- SEC_EL -->
<g id="node15" class="node">
<title>SEC_EL</title>
<ellipse fill="lightgrey" stroke="black" cx="325.1" cy="-207" rx="3.5" ry="3.5"/>
</g>
<!-- NGCC&#45;&gt;SEC_EL -->
<g id="edge18" class="edge">
<title>NGCC&#45;&gt;SEC_EL</title>
<path fill="none" stroke="black" d="M285.76,-261C304.25,-261 325.37,-261 325.37,-261 325.37,-261 325.37,-222.56 325.37,-210.54"/>
</g>
<!-- TD -->
<g id="node11" class="node">
<title>TD</title>
<polygon fill="yellow" stroke="black" points="425.1,-225 371.1,-225 371.1,-189 425.1,-189 425.1,-225"/>
<text text-anchor="middle" x="398.1" y="-203.3" font-family="Times,serif" font-size="14.00">TD</text>
</g>
<!-- TD&#45;&gt;FEL -->
<g id="edge19" class="edge">
<title>TD&#45;&gt;FEL</title>
<path fill="none" stroke="black" d="M425.38,-220.5C446.22,-220.5 471.37,-220.5 471.37,-220.5 471.37,-220.5 471.37,-226.31 471.37,-230.31"/>
</g>
<!-- SCC -->
<g id="node12" class="node">
<title>SCC</title>
<polygon fill="yellow" stroke="black" points="285.6,-198 231.6,-198 231.6,-162 285.6,-162 285.6,-198"/>
<text text-anchor="middle" x="258.6" y="-176.3" font-family="Times,serif" font-size="14.00">SCC</text>
</g>
<!-- SCC&#45;&gt;SEC_EL -->
<g id="edge20" class="edge">
<title>SCC&#45;&gt;SEC_EL</title>
<path fill="none" stroke="black" d="M285.76,-193.5C304.25,-193.5 325.37,-193.5 325.37,-193.5 325.37,-193.5 325.37,-199.31 325.37,-203.31"/>
</g>
<!-- AnnualDemand -->
<g id="node18" class="node">
<title>AnnualDemand</title>
<ellipse fill="green" stroke="black" cx="624.99" cy="-234" rx="114.28" ry="18"/>
<text text-anchor="middle" x="624.99" y="-230.3" font-family="Times,serif" font-size="14.00">AccumulatedAnnualDemand</text>
</g>
<!-- FEL&#45;&gt;AnnualDemand -->
<g id="edge21" class="edge">
<title>FEL&#45;&gt;AnnualDemand</title>
<path fill="none" stroke="black" d="M474.6,-234C474.6,-234 500.27,-234 500.27,-234"/>
<polygon fill="black" stroke="black" points="500.27,-237.5 510.27,-234 500.27,-230.5 500.27,-237.5"/>
<text text-anchor="middle" x="474.94" y="-237.8" font-family="Times,serif" font-size="14.00">FEL</text>
</g>
<!-- GAS&#45;&gt;NGCC -->
<g id="edge22" class="edge">
<title>GAS&#45;&gt;NGCC</title>
<path fill="none" stroke="black" d="M170.37,-284.72C170.37,-281.17 170.37,-276 170.37,-276 170.37,-276 221.17,-276 221.17,-276"/>
<polygon fill="black" stroke="black" points="221.17,-279.5 231.17,-276 221.17,-272.5 221.17,-279.5"/>
<text text-anchor="middle" x="177.41" y="-264.8" font-family="Times,serif" font-size="14.00">GAS</text>
</g>
<!-- SEC_EL&#45;&gt;TD -->
<g id="edge23" class="edge">
<title>SEC_EL&#45;&gt;TD</title>
<path fill="none" stroke="black" d="M328.62,-207C328.62,-207 361,-207 361,-207"/>
<polygon fill="black" stroke="black" points="361,-210.5 371,-207 361,-203.5 361,-210.5"/>
<text text-anchor="middle" x="320.31" y="-210.8" font-family="Times,serif" font-size="14.00">SEC_EL</text>
</g>
<!-- COA&#45;&gt;SCC -->
<g id="edge24" class="edge">
<title>COA&#45;&gt;SCC</title>
<path fill="none" stroke="black" d="M168.37,-129.52C168.37,-140.09 168.37,-170.85 168.37,-170.85 168.37,-170.85 221.53,-170.85 221.53,-170.85"/>
<polygon fill="black" stroke="black" points="221.53,-174.35 231.53,-170.85 221.53,-167.35 221.53,-174.35"/>
<text text-anchor="middle" x="159.78" y="-159.65" font-family="Times,serif" font-size="14.00">COA</text>
</g>
</g>
</svg>
