<?xml version="1.0" encoding="UTF-8" standalone="no"?>
<!DOCTYPE svg PUBLIC "-//W3C//DTD SVG 1.1//EN"
 "http://www.w3.org/Graphics/SVG/1.1/DTD/svg11.dtd">
<!-- Generated by graphviz version 2.44.1 (20200629.0846)
 -->
<!-- Pages: 1 -->
<svg width="736pt" height="184pt"
 viewBox="0.00 0.00 736.37 184.30" xmlns="http://www.w3.org/2000/svg" xmlns:xlink="http://www.w3.org/1999/xlink">
<g id="graph0" class="graph" transform="scale(1 1) rotate(0) translate(4 180.3)">
<polygon fill="white" stroke="transparent" points="-4,4 -4,-180.3 732.37,-180.3 732.37,4 -4,4"/>
<!-- Backstop -->
<g id="node1" class="node">
<title>Backstop</title>
<polygon fill="yellow" stroke="black" points="420.6,-176.3 353.6,-176.3 353.6,-140.3 420.6,-140.3 420.6,-176.3"/>
<text text-anchor="middle" x="387.1" y="-154.6" font-family="Times,serif" font-size="14.00">Backstop</text>
</g>
<!-- FEL -->
<g id="node8" class="node">
<title>FEL</title>
<ellipse fill="lightgrey" stroke="black" cx="460.1" cy="-104.3" rx="3.5" ry="3.5"/>
</g>
<!-- Backstop&#45;&gt;FEL -->
<g id="edge1" class="edge">
<title>Backstop&#45;&gt;FEL</title>
<path fill="none" stroke="black" d="M420.73,-158.3C440,-158.3 460.37,-158.3 460.37,-158.3 460.37,-158.3 460.37,-119.85 460.37,-107.84"/>
</g>
<!-- GasExtraction -->
<g id="node2" class="node">
<title>GasExtraction</title>
<polygon fill="yellow" stroke="black" points="94,-97.3 0,-97.3 0,-61.3 94,-61.3 94,-97.3"/>
<text text-anchor="middle" x="47" y="-75.6" font-family="Times,serif" font-size="14.00">GasExtraction</text>
</g>
<!-- GAS -->
<g id="node9" class="node">
<title>GAS</title>
<ellipse fill="lightgrey" stroke="black" cx="157.3" cy="-77.3" rx="3.5" ry="3.5"/>
</g>
<!-- GasExtraction&#45;&gt;GAS -->
<g id="edge2" class="edge">
<title>GasExtraction&#45;&gt;GAS</title>
<path fill="none" stroke="black" d="M94.1,-78.46C118.22,-78.46 144.44,-78.46 153.77,-78.46"/>
</g>
<!-- CO2 -->
<g id="node11" class="node">
<title>CO2</title>
<ellipse fill="grey" stroke="black" cx="157.3" cy="-27.3" rx="27.1" ry="27.1"/>
<text text-anchor="middle" x="157.3" y="-23.6" font-family="Times,serif" font-size="14.00">CO2</text>
</g>
<!-- GasExtraction&#45;&gt;CO2 -->
<g id="edge3" class="edge">
<title>GasExtraction&#45;&gt;CO2</title>
<path fill="none" stroke="black" d="M89.37,-61.29C89.37,-54.76 89.37,-48.95 89.37,-48.95 89.37,-48.95 120.39,-48.95 140.51,-48.95"/>
</g>
<!-- GasImport -->
<g id="node3" class="node">
<title>GasImport</title>
<polygon fill="yellow" stroke="black" points="84.5,-43.3 9.5,-43.3 9.5,-7.3 84.5,-7.3 84.5,-43.3"/>
<text text-anchor="middle" x="47" y="-21.6" font-family="Times,serif" font-size="14.00">GasImport</text>
</g>
<!-- GasImport&#45;&gt;GAS -->
<g id="edge4" class="edge">
<title>GasImport&#45;&gt;GAS</title>
<path fill="none" stroke="black" d="M84.65,-31.3C99.18,-31.3 112.37,-31.3 112.37,-31.3 112.37,-31.3 112.37,-76.13 112.37,-76.13 112.37,-76.13 143.18,-76.13 153.77,-76.13"/>
</g>
<!-- GasImport&#45;&gt;CO2 -->
<g id="edge5" class="edge">
<title>GasImport&#45;&gt;CO2</title>
<path fill="none" stroke="black" d="M84.65,-19.3C99.88,-19.3 117.09,-19.3 130.94,-19.3"/>
</g>
<!-- NGCC -->
<g id="node4" class="node">
<title>NGCC</title>
<polygon fill="yellow" stroke="black" points="274.6,-95.3 220.6,-95.3 220.6,-59.3 274.6,-59.3 274.6,-95.3"/>
<text text-anchor="middle" x="247.6" y="-73.6" font-family="Times,serif" font-size="14.00">NGCC</text>
</g>
<!-- SEC_EL -->
<g id="node10" class="node">
<title>SEC_EL</title>
<ellipse fill="lightgrey" stroke="black" cx="314.1" cy="-50.3" rx="3.5" ry="3.5"/>
</g>
<!-- NGCC&#45;&gt;SEC_EL -->
<g id="edge6" class="edge">
<title>NGCC&#45;&gt;SEC_EL</title>
<path fill="none" stroke="black" d="M274.76,-63.8C293.25,-63.8 314.37,-63.8 314.37,-63.8 314.37,-63.8 314.37,-57.98 314.37,-53.99"/>
</g>
<!-- SOLPV -->
<g id="node5" class="node">
<title>SOLPV</title>
<polygon fill="yellow" stroke="black" points="416.6,-122.3 357.6,-122.3 357.6,-86.3 416.6,-86.3 416.6,-122.3"/>
<text text-anchor="middle" x="387.1" y="-100.6" font-family="Times,serif" font-size="14.00">SOLPV</text>
</g>
<!-- SOLPV&#45;&gt;FEL -->
<g id="edge7" class="edge">
<title>SOLPV&#45;&gt;FEL</title>
<path fill="none" stroke="black" d="M416.79,-104.3C431.94,-104.3 448.73,-104.3 456.17,-104.3"/>
</g>
<!-- WIND -->
<g id="node6" class="node">
<title>WIND</title>
<polygon fill="yellow" stroke="black" points="274.6,-41.3 220.6,-41.3 220.6,-5.3 274.6,-5.3 274.6,-41.3"/>
<text text-anchor="middle" x="247.6" y="-19.6" font-family="Times,serif" font-size="14.00">WIND</text>
</g>
<!-- WIND&#45;&gt;SEC_EL -->
<g id="edge8" class="edge">
<title>WIND&#45;&gt;SEC_EL</title>
<path fill="none" stroke="black" d="M274.76,-36.8C293.25,-36.8 314.37,-36.8 314.37,-36.8 314.37,-36.8 314.37,-42.61 314.37,-46.61"/>
</g>
<!-- TD -->
<g id="node7" class="node">
<title>TD</title>
<polygon fill="yellow" stroke="black" points="414.1,-68.3 360.1,-68.3 360.1,-32.3 414.1,-32.3 414.1,-68.3"/>
<text text-anchor="middle" x="387.1" y="-46.6" font-family="Times,serif" font-size="14.00">TD</text>
</g>
<!-- TD&#45;&gt;FEL -->
<g id="edge9" class="edge">
<title>TD&#45;&gt;FEL</title>
<path fill="none" stroke="black" d="M414.38,-50.3C435.22,-50.3 460.37,-50.3 460.37,-50.3 460.37,-50.3 460.37,-88.74 460.37,-100.75"/>
</g>
<!-- AnnualDemand -->
<g id="node12" class="node">
<title>AnnualDemand</title>
<ellipse fill="green" stroke="black" cx="613.99" cy="-104.3" rx="114.28" ry="18"/>
<text text-anchor="middle" x="613.99" y="-100.6" font-family="Times,serif" font-size="14.00">AccumulatedAnnualDemand</text>
</g>
<!-- FEL&#45;&gt;AnnualDemand -->
<g id="edge10" class="edge">
<title>FEL&#45;&gt;AnnualDemand</title>
<path fill="none" stroke="black" d="M463.6,-104.3C463.6,-104.3 489.27,-104.3 489.27,-104.3"/>
<polygon fill="black" stroke="black" points="489.27,-107.8 499.27,-104.3 489.27,-100.8 489.27,-107.8"/>
<text text-anchor="middle" x="463.94" y="-108.1" font-family="Times,serif" font-size="14.00">FEL</text>
</g>
<!-- GAS&#45;&gt;NGCC -->
<g id="edge11" class="edge">
<title>GAS&#45;&gt;NGCC</title>
<path fill="none" stroke="black" d="M161.18,-77.3C161.18,-77.3 210.2,-77.3 210.2,-77.3"/>
<polygon fill="black" stroke="black" points="210.2,-80.8 220.2,-77.3 210.2,-73.8 210.2,-80.8"/>
<text text-anchor="middle" x="199.69" y="-66.1" font-family="Times,serif" font-size="14.00">GAS</text>
</g>
<!-- SEC_EL&#45;&gt;TD -->
<g id="edge12" class="edge">
<title>SEC_EL&#45;&gt;TD</title>
<path fill="none" stroke="black" d="M317.62,-50.3C317.62,-50.3 350,-50.3 350,-50.3"/>
<polygon fill="black" stroke="black" points="350,-53.8 360,-50.3 350,-46.8 350,-53.8"/>
<text text-anchor="middle" x="309.31" y="-54.1" font-family="Times,serif" font-size="14.00">SEC_EL</text>
</g>
</g>
</svg>
