<?xml version="1.0" encoding="UTF-8" standalone="no"?>
<svg
   xmlns:dc="http://purl.org/dc/elements/1.1/"
   xmlns:cc="http://creativecommons.org/ns#"
   xmlns:rdf="http://www.w3.org/1999/02/22-rdf-syntax-ns#"
   xmlns:svg="http://www.w3.org/2000/svg"
   xmlns="http://www.w3.org/2000/svg"
   xmlns:sodipodi="http://sodipodi.sourceforge.net/DTD/sodipodi-0.dtd"
   xmlns:inkscape="http://www.inkscape.org/namespaces/inkscape"
   width="660pt"
   height="422pt"
   viewBox="0.00 0.00 660.48 422.00"
   version="1.1"
   id="svg285"
   sodipodi:docname="gassolarwind.svg"
   inkscape:version="1.0.1 (3bc2e813f5, 2020-09-07)">
  <metadata
     id="metadata291">
    <rdf:RDF>
      <cc:Work
         rdf:about="">
        <dc:format>image/svg+xml</dc:format>
        <dc:type
           rdf:resource="http://purl.org/dc/dcmitype/StillImage" />
      </cc:Work>
    </rdf:RDF>
  </metadata>
  <defs
     id="defs289" />
  <sodipodi:namedview
     pagecolor="#ffffff"
     bordercolor="#666666"
     borderopacity="1"
     objecttolerance="10"
     gridtolerance="10"
     guidetolerance="10"
     inkscape:pageopacity="0"
     inkscape:pageshadow="2"
     inkscape:window-width="1705"
     inkscape:window-height="894"
     id="namedview287"
     showgrid="false"
     inkscape:zoom="1.1840909"
     inkscape:cx="207.33205"
     inkscape:cy="281.33333"
     inkscape:window-x="0"
     inkscape:window-y="0"
     inkscape:window-maximized="0"
     inkscape:current-layer="graph0" />
  <g
     id="graph0"
     class="graph"
     transform="scale(1 1) rotate(0) translate(4 418)">
    <title
       id="title2">%3</title>
    <polygon
       fill="#ffffff"
       stroke="transparent"
       points="-4,4 -4,-418 656.4798,-418 656.4798,4 -4,4"
       id="polygon4" />
    <!-- Backstop -->
    <g
       id="node1"
       class="node">
      <title
         id="title6">Backstop</title>
      <polygon
         fill="#ffff00"
         stroke="#000000"
         points="392.7958,-340 336.7958,-340 336.7958,-304 392.7958,-304 392.7958,-340"
         id="polygon8" />
      <text
         text-anchor="middle"
         x="364.7958"
         y="-318.3"
         font-family="Times,serif"
         font-size="14.00"
         fill="#000000"
         id="text10">Backstop</text>
    </g>
    <!-- FEL -->
    <g
       id="node15"
       class="node">
      <title
         id="title13">FEL</title>
      <ellipse
         fill="#d3d3d3"
         stroke="#000000"
         cx="432.2958"
         cy="-268"
         rx="3.5"
         ry="3.5"
         id="ellipse15" />
    </g>
    <!-- Backstop&#45;&gt;FEL -->
    <g
       id="edge1"
       class="edge">
      <title
         id="title18">Backstop-&gt;FEL</title>
      <path
         fill="none"
         stroke="#000000"
         d="M393.1078,-322C411.6549,-322 432.4798,-322 432.4798,-322 432.4798,-322 432.4798,-283.5566 432.4798,-271.5431"
         id="path20" />
    </g>
    <!-- GasExtraction -->
    <g
       id="node2"
       class="node">
      <title
         id="title23">GasExtraction</title>
      <polygon
         fill="#ffff00"
         stroke="#000000"
         points="81,-306 4,-306 4,-270 81,-270 81,-306"
         id="polygon25" />
      <text
         text-anchor="middle"
         x="42.5"
         y="-284.29999"
         font-family="Times, serif"
         font-size="14.00"
         fill="#000000"
         id="text27"
         style="font-size:13.0095px">GasExtraction</text>
    </g>
    <!-- GAS -->
    <g
       id="node16"
       class="node">
      <title
         id="title30">GAS</title>
      <ellipse
         fill="#d3d3d3"
         stroke="#000000"
         cx="144.3979"
         cy="-288"
         rx="3.5"
         ry="3.5"
         id="ellipse32" />
    </g>
    <!-- GasExtraction&#45;&gt;GAS -->
    <g
       id="edge2"
       class="edge">
      <title
         id="title35">GasExtraction-&gt;GAS</title>
      <path
         fill="none"
         stroke="#000000"
         d="M81.0232,-288C104.2431,-288 131.13,-288 140.7469,-288"
         id="path37" />
    </g>
    <!-- CO2 -->
    <g
       id="node19"
       class="node">
      <title
         id="title40">CO2</title>
      <ellipse
         fill="#c0c0c0"
         stroke="#000000"
         cx="144.3979"
         cy="-207"
         rx="23.2963"
         ry="23.2963"
         id="ellipse42" />
      <text
         text-anchor="middle"
         x="144.3979"
         y="-203.3"
         font-family="Times,serif"
         font-size="14.00"
         fill="#000000"
         id="text44">CO2</text>
    </g>
    <!-- GasExtraction&#45;&gt;CO2 -->
    <g
       id="edge3"
       class="edge">
      <title
         id="title47">GasExtraction-&gt;CO2</title>
      <path
         fill="none"
         stroke="#000000"
         d="M77.4798,-269.9509C77.4798,-251.5214 77.4798,-225.5986 77.4798,-225.5986 77.4798,-225.5986 110.1965,-225.5986 129.8777,-225.5986"
         id="path49" />
    </g>
    <!-- GasImport -->
    <g
       id="node3"
       class="node">
      <title
         id="title52">GasImport</title>
      <polygon
         fill="#ffff00"
         stroke="#000000"
         points="73,-252 12,-252 12,-216 73,-216 73,-252"
         id="polygon54" />
      <text
         text-anchor="middle"
         x="42.5"
         y="-230.3"
         font-family="Times, serif"
         font-size="14.00"
         fill="#000000"
         id="text56"
         style="font-size:13.0095px">GasImport</text>
    </g>
    <!-- GasImport&#45;&gt;GAS -->
    <g
       id="edge4"
       class="edge">
      <title
         id="title59">GasImport-&gt;GAS</title>
      <path
         fill="none"
         stroke="#000000"
         d="M73.0973,-241C103.1361,-241 144.4798,-241 144.4798,-241 144.4798,-241 144.4798,-273.2322 144.4798,-284.312"
         id="path61" />
    </g>
    <!-- GasImport&#45;&gt;CO2 -->
    <g
       id="edge5"
       class="edge">
      <title
         id="title64">GasImport-&gt;CO2</title>
      <path
         fill="none"
         stroke="#000000"
         d="M73.0727,-220.7993C90.0732,-220.7993 110.6976,-220.7993 125.3867,-220.7993"
         id="path66" />
    </g>
    <!-- NGCC -->
    <g
       id="node4"
       class="node">
      <title
         id="title69">NGCC</title>
      <polygon
         fill="#ffff00"
         stroke="#000000"
         points="257.7958,-299 203.7958,-299 203.7958,-263 257.7958,-263 257.7958,-299"
         id="polygon71" />
      <text
         text-anchor="middle"
         x="230.7958"
         y="-277.3"
         font-family="Times,serif"
         font-size="14.00"
         fill="#000000"
         id="text73">NGCC</text>
    </g>
    <!-- SEC_EL -->
    <g
       id="node17"
       class="node">
      <title
         id="title76">SEC_EL</title>
      <ellipse
         fill="#d3d3d3"
         stroke="#000000"
         cx="297.2958"
         cy="-214"
         rx="3.5"
         ry="3.5"
         id="ellipse78" />
    </g>
    <!-- NGCC&#45;&gt;SEC_EL -->
    <g
       id="edge6"
       class="edge">
      <title
         id="title81">NGCC-&gt;SEC_EL</title>
      <path
         fill="none"
         stroke="#000000"
         d="M257.9188,-274.5C276.3806,-274.5 297.4798,-274.5 297.4798,-274.5 297.4798,-274.5 297.4798,-230.6279 297.4798,-217.6034"
         id="path83" />
    </g>
    <!-- SOLPV -->
    <g
       id="node5"
       class="node">
      <title
         id="title86">SOLPV</title>
      <polygon
         fill="#ffff00"
         stroke="#000000"
         points="391.7958,-286 337.7958,-286 337.7958,-250 391.7958,-250 391.7958,-286"
         id="polygon88" />
      <text
         text-anchor="middle"
         x="364.7958"
         y="-264.3"
         font-family="Times,serif"
         font-size="14.00"
         fill="#000000"
         id="text90">SOLPV</text>
    </g>
    <!-- SOLPV&#45;&gt;FEL -->
    <g
       id="edge7"
       class="edge">
      <title
         id="title93">SOLPV-&gt;FEL</title>
      <path
         fill="none"
         stroke="#000000"
         d="M391.8617,-268C405.946,-268 421.6481,-268 428.6188,-268"
         id="path95" />
    </g>
    <!-- WIND -->
    <g
       id="node6"
       class="node">
      <title
         id="title98">WIND</title>
      <polygon
         fill="#ffff00"
         stroke="#000000"
         points="257.7958,-232 203.7958,-232 203.7958,-196 257.7958,-196 257.7958,-232"
         id="polygon100" />
      <text
         text-anchor="middle"
         x="230.7958"
         y="-210.3"
         font-family="Times,serif"
         font-size="14.00"
         fill="#000000"
         id="text102">WIND</text>
    </g>
    <!-- WIND&#45;&gt;SEC_EL -->
    <g
       id="edge8"
       class="edge">
      <title
         id="title105">WIND-&gt;SEC_EL</title>
      <path
         fill="none"
         stroke="#000000"
         d="M257.8439,-214C271.6521,-214 286.9397,-214 293.7205,-214"
         id="path107" />
    </g>
    <!-- TD -->
    <g
       id="node7"
       class="node">
      <title
         id="title110">TD</title>
      <polygon
         fill="#ffff00"
         stroke="#000000"
         points="391.7958,-232 337.7958,-232 337.7958,-196 391.7958,-196 391.7958,-232"
         id="polygon112" />
      <text
         text-anchor="middle"
         x="364.7958"
         y="-210.3"
         font-family="Times,serif"
         font-size="14.00"
         fill="#000000"
         id="text114">TD</text>
    </g>
    <!-- TD&#45;&gt;FEL -->
    <g
       id="edge9"
       class="edge">
      <title
         id="title117">TD-&gt;FEL</title>
      <path
         fill="none"
         stroke="#000000"
         d="M391.9355,-214C410.7657,-214 432.4798,-214 432.4798,-214 432.4798,-214 432.4798,-252.4434 432.4798,-264.4569"
         id="path119" />
    </g>
    <!-- GasExtraction2 -->
    <g
       id="node8"
       class="node">
      <title
         id="title122">GasExtraction2</title>
      <polygon
         fill="#ffff00"
         stroke="#000000"
         points="83.5,-414 1.5,-414 1.5,-378 83.5,-378 83.5,-414"
         id="polygon124" />
      <text
         text-anchor="middle"
         x="42.5"
         y="-392.29999"
         font-family="Times, serif"
         font-size="14.00"
         fill="#000000"
         id="text126"
         style="font-size:13.0095px">GasExtraction2</text>
    </g>
    <!-- GasExtraction2&#45;&gt;GAS -->
    <g
       id="edge10"
       class="edge">
      <title
         id="title129">GasExtraction2-&gt;GAS</title>
      <path
         fill="none"
         stroke="#000000"
         d="M83.5956,-402C112.6597,-402 146.4798,-402 146.4798,-402 146.4798,-402 146.4798,-308.373 146.4798,-290.818"
         id="path131" />
    </g>
    <!-- GasExtraction2&#45;&gt;CO2 -->
    <g
       id="edge11"
       class="edge">
      <title
         id="title134">GasExtraction2-&gt;CO2</title>
      <path
         fill="none"
         stroke="#000000"
         d="M83.6474,-390C108.1375,-390 134.4798,-390 134.4798,-390 134.4798,-390 134.4798,-276.624 134.4798,-228.3506"
         id="path136" />
    </g>
    <!-- GasExtraction3 -->
    <g
       id="node9"
       class="node">
      <title
         id="title139">GasExtraction3</title>
      <polygon
         fill="#ffff00"
         stroke="#000000"
         points="83.5,-360 1.5,-360 1.5,-324 83.5,-324 83.5,-360"
         id="polygon141" />
      <text
         text-anchor="middle"
         x="42.5"
         y="-338.29999"
         font-family="Times, serif"
         font-size="14.00"
         fill="#000000"
         id="text143"
         style="font-size:13.0095px">GasExtraction3</text>
    </g>
    <!-- GasExtraction3&#45;&gt;GAS -->
    <g
       id="edge12"
       class="edge">
      <title
         id="title146">GasExtraction3-&gt;GAS</title>
      <path
         fill="none"
         stroke="#000000"
         d="M83.5724,-334.6667C111.5292,-334.6667 143.4798,-334.6667 143.4798,-334.6667 143.4798,-334.6667 143.4798,-302.6631 143.4798,-291.6619"
         id="path148" />
    </g>
    <!-- GasExtraction3&#45;&gt;CO2 -->
    <g
       id="edge13"
       class="edge">
      <title
         id="title151">GasExtraction3-&gt;CO2</title>
      <path
         fill="none"
         stroke="#000000"
         d="M83.7271,-329.3333C105.7933,-329.3333 128.4798,-329.3333 128.4798,-329.3333 128.4798,-329.3333 128.4798,-257.9892 128.4798,-224.2679"
         id="path153" />
    </g>
    <!-- CoalExtraction -->
    <g
       id="node10"
       class="node">
      <title
         id="title156">CoalExtraction</title>
      <polygon
         fill="#ffff00"
         stroke="#000000"
         points="82.5,-90 2.5,-90 2.5,-54 82.5,-54 82.5,-90"
         id="polygon158" />
      <text
         text-anchor="middle"
         x="42.5"
         y="-68.300003"
         font-family="Times, serif"
         font-size="14.00"
         fill="#000000"
         id="text160"
         style="font-size:13.0095px">CoalExtraction</text>
    </g>
    <!-- COA -->
    <g
       id="node18"
       class="node">
      <title
         id="title163">COA</title>
      <ellipse
         fill="#d3d3d3"
         stroke="#000000"
         cx="144.3979"
         cy="-126"
         rx="3.5"
         ry="3.5"
         id="ellipse165" />
    </g>
    <!-- CoalExtraction&#45;&gt;COA -->
    <g
       id="edge14"
       class="edge">
      <title
         id="title168">CoalExtraction-&gt;COA</title>
      <path
         fill="none"
         stroke="#000000"
         d="M80.4798,-90.2745C80.4798,-105.3419 80.4798,-124.25 80.4798,-124.25 80.4798,-124.25 128.5471,-124.25 141.315,-124.25"
         id="path170" />
    </g>
    <!-- CoalExtraction&#45;&gt;CO2 -->
    <g
       id="edge15"
       class="edge">
      <title
         id="title173">CoalExtraction-&gt;CO2</title>
      <path
         fill="none"
         stroke="#000000"
         d="M82.5648,-72C106.1824,-72 131.4798,-72 131.4798,-72 131.4798,-72 131.4798,-149.9279 131.4798,-187.3698"
         id="path175" />
    </g>
    <!-- CoalExtraction2 -->
    <g
       id="node11"
       class="node">
      <title
         id="title178">CoalExtraction2</title>
      <polygon
         fill="#ffff00"
         stroke="#000000"
         points="85,-36 0,-36 0,0 85,0 85,-36"
         id="polygon180" />
      <text
         text-anchor="middle"
         x="42.5"
         y="-14.3"
         font-family="Times, serif"
         font-size="14.00"
         fill="#000000"
         id="text182"
         style="font-size:13.0095px">CoalExtraction2</text>
    </g>
    <!-- CoalExtraction2&#45;&gt;COA -->
    <g
       id="edge16"
       class="edge">
      <title
         id="title185">CoalExtraction2-&gt;COA</title>
      <path
         fill="none"
         stroke="#000000"
         d="M85.1577,-12C113.1028,-12 144.4798,-12 144.4798,-12 144.4798,-12 144.4798,-103.2212 144.4798,-122.4632"
         id="path187" />
    </g>
    <!-- CoalExtraction2&#45;&gt;CO2 -->
    <g
       id="edge17"
       class="edge">
      <title
         id="title190">CoalExtraction2-&gt;CO2</title>
      <path
         fill="none"
         stroke="#000000"
         d="M85.0903,-24C109.9562,-24 136.4798,-24 136.4798,-24 136.4798,-24 136.4798,-136.2535 136.4798,-184.9259"
         id="path192" />
    </g>
    <!-- CoalExtraction3 -->
    <g
       id="node12"
       class="node">
      <title
         id="title195">CoalExtraction3</title>
      <polygon
         fill="#ffff00"
         stroke="#000000"
         points="85,-198 0,-198 0,-162 85,-162 85,-198"
         id="polygon197" />
      <text
         text-anchor="middle"
         x="42.5"
         y="-176.3"
         font-family="Times, serif"
         font-size="14.00"
         fill="#000000"
         id="text199"
         style="font-size:13.0095px">CoalExtraction3</text>
    </g>
    <!-- CoalExtraction3&#45;&gt;COA -->
    <g
       id="edge18"
       class="edge">
      <title
         id="title202">CoalExtraction3-&gt;COA</title>
      <path
         fill="none"
         stroke="#000000"
         d="M78.4798,-161.7255C78.4798,-146.6581 78.4798,-127.75 78.4798,-127.75 78.4798,-127.75 128.0512,-127.75 141.2186,-127.75"
         id="path204" />
    </g>
    <!-- CoalExtraction3&#45;&gt;CO2 -->
    <g
       id="edge19"
       class="edge">
      <title
         id="title207">CoalExtraction3-&gt;CO2</title>
      <path
         fill="none"
         stroke="#000000"
         d="M85.1235,-190.801C99.9574,-190.801 115.7591,-190.801 127.3138,-190.801"
         id="path209" />
    </g>
    <!-- CoalImport -->
    <g
       id="node13"
       class="node">
      <title
         id="title212">CoalImport</title>
      <polygon
         fill="#ffff00"
         stroke="#000000"
         points="75,-144 10,-144 10,-108 75,-108 75,-144"
         id="polygon214" />
      <text
         text-anchor="middle"
         x="42.5"
         y="-122.3"
         font-family="Times, serif"
         font-size="14.00"
         fill="#000000"
         id="text216"
         style="font-size:13.0095px">CoalImport</text>
    </g>
    <!-- CoalImport&#45;&gt;COA -->
    <g
       id="edge20"
       class="edge">
      <title
         id="title219">CoalImport-&gt;COA</title>
      <path
         fill="none"
         stroke="#000000"
         d="M75.0213,-126C99.4839,-126 130.497,-126 140.8524,-126"
         id="path221" />
    </g>
    <!-- CoalImport&#45;&gt;CO2 -->
    <g
       id="edge21"
       class="edge">
      <title
         id="title224">CoalImport-&gt;CO2</title>
      <path
         fill="none"
         stroke="#000000"
         d="M75.2093,-136.75C98.7894,-136.75 126.4798,-136.75 126.4798,-136.75 126.4798,-136.75 126.4798,-171.0957 126.4798,-191.7568"
         id="path226" />
    </g>
    <!-- SCC -->
    <g
       id="node14"
       class="node">
      <title
         id="title229">SCC</title>
      <polygon
         fill="#ffff00"
         stroke="#000000"
         points="257.7958,-151 203.7958,-151 203.7958,-115 257.7958,-115 257.7958,-151"
         id="polygon231" />
      <text
         text-anchor="middle"
         x="230.7958"
         y="-129.3"
         font-family="Times,serif"
         font-size="14.00"
         fill="#000000"
         id="text233">SCC</text>
    </g>
    <!-- SCC&#45;&gt;SEC_EL -->
    <g
       id="edge22"
       class="edge">
      <title
         id="title236">SCC-&gt;SEC_EL</title>
      <path
         fill="none"
         stroke="#000000"
         d="M257.9188,-133C276.3806,-133 297.4798,-133 297.4798,-133 297.4798,-133 297.4798,-193.9131 297.4798,-210.0932"
         id="path238" />
    </g>
    <!-- AnnualDemand -->
    <g
       id="node20"
       class="node">
      <title
         id="title241">AnnualDemand</title>
      <ellipse
         fill="#00ff00"
         stroke="#000000"
         cx="562.1378"
         cy="-268"
         rx="90.1842"
         ry="18"
         id="ellipse243" />
      <text
         text-anchor="middle"
         x="562.1378"
         y="-264.3"
         font-family="Times,serif"
         font-size="14.00"
         fill="#000000"
         id="text245">AccumulatedAnnualDemand</text>
    </g>
    <!-- FEL&#45;&gt;AnnualDemand -->
    <g
       id="edge23"
       class="edge">
      <title
         id="title248">FEL-&gt;AnnualDemand</title>
      <path
         fill="none"
         stroke="#000000"
         d="M436.0417,-268C436.0417,-268 461.5224,-268 461.5224,-268"
         id="path250" />
      <polygon
         fill="#000000"
         stroke="#000000"
         points="461.5225,-271.5001 471.5224,-268 461.5224,-264.5001 461.5225,-271.5001"
         id="polygon252" />
      <text
         text-anchor="middle"
         x="458.2821"
         y="-256.8"
         font-family="Times,serif"
         font-size="14.00"
         fill="#000000"
         id="text254">FEL</text>
    </g>
    <!-- GAS&#45;&gt;NGCC -->
    <g
       id="edge24"
       class="edge">
      <title
         id="title257">GAS-&gt;NGCC</title>
      <path
         fill="none"
         stroke="#000000"
         d="M148.1103,-288C148.1103,-288 193.7552,-288 193.7552,-288"
         id="path259" />
      <polygon
         fill="#000000"
         stroke="#000000"
         points="193.7553,-291.5001 203.7552,-288 193.7552,-284.5001 193.7553,-291.5001"
         id="polygon261" />
      <text
         text-anchor="middle"
         x="159.9328"
         y="-276.8"
         font-family="Times,serif"
         font-size="14.00"
         fill="#000000"
         id="text263">GAS</text>
    </g>
    <!-- SEC_EL&#45;&gt;TD -->
    <g
       id="edge25"
       class="edge">
      <title
         id="title266">SEC_EL-&gt;TD</title>
      <path
         fill="none"
         stroke="#000000"
         d="M300.9249,-214C300.9249,-214 327.7846,-214 327.7846,-214"
         id="path268" />
      <polygon
         fill="#000000"
         stroke="#000000"
         points="327.7846,-217.5001 337.7846,-214 327.7845,-210.5001 327.7846,-217.5001"
         id="polygon270" />
      <text
         text-anchor="middle"
         x="295.3548"
         y="-202.8"
         font-family="Times,serif"
         font-size="14.00"
         fill="#000000"
         id="text272">SEC_EL</text>
    </g>
    <!-- COA&#45;&gt;SCC -->
    <g
       id="edge26"
       class="edge">
      <title
         id="title275">COA-&gt;SCC</title>
      <path
         fill="none"
         stroke="#000000"
         d="M148.1103,-126C148.1103,-126 193.7552,-126 193.7552,-126"
         id="path277" />
      <polygon
         fill="#000000"
         stroke="#000000"
         points="193.7553,-129.5001 203.7552,-126 193.7552,-122.5001 193.7553,-129.5001"
         id="polygon279" />
      <text
         text-anchor="middle"
         x="159.4328"
         y="-114.8"
         font-family="Times,serif"
         font-size="14.00"
         fill="#000000"
         id="text281">COA</text>
    </g>
  </g>
</svg>
